<svg width="21" height="19" viewBox="0 0 21 19"  xmlns="http://www.w3.org/2000/svg">
<path stroke="none" fill="" d="M6.7836 2.02087C6.92537 1.75267 7.21516 1.58325 7.53215 1.58325H12.5536C12.8706 1.58325 13.1604 1.75267 13.3021 2.02087L14.3262 3.95825H17.1566C18.3121 3.95825 19.2488 4.84435 19.2488 5.93742V15.4374C19.2488 16.5305 18.3121 17.4166 17.1566 17.4166H2.92918C1.77365 17.4166 0.836914 16.5305 0.836914 15.4374V5.93742C0.836914 4.84435 1.77365 3.95825 2.92918 3.95825H5.75956L6.7836 2.02087ZM7.63094 3.95825H12.4548L12.0363 3.16659H8.04939L7.63094 3.95825ZM2.92918 5.54159C2.69807 5.54159 2.51072 5.71881 2.51072 5.93742V15.4374C2.51072 15.656 2.69807 15.8333 2.92918 15.8333H17.1566C17.3877 15.8333 17.575 15.656 17.575 15.4374V5.93742C17.575 5.71881 17.3877 5.54159 17.1566 5.54159H2.92918ZM5.85834 10.6874C5.85834 8.50128 7.73181 6.72909 10.0429 6.72909C12.3539 6.72909 14.2274 8.50128 14.2274 10.6874C14.2274 12.8736 12.3539 14.6458 10.0429 14.6458C7.73181 14.6458 5.85834 12.8736 5.85834 10.6874ZM10.0429 8.31242C8.65623 8.31242 7.53215 9.37573 7.53215 10.6874C7.53215 11.9991 8.65623 13.0624 10.0429 13.0624C11.4295 13.0624 12.5536 11.9991 12.5536 10.6874C12.5536 9.37573 11.4295 8.31242 10.0429 8.31242Z"/>
</svg>
