<svg width="20" height="19" viewBox="0 0 20 19"  xmlns="http://www.w3.org/2000/svg">
<path fill-rule="evenodd" clip-rule="evenodd" d="M16.9582 0.961731C17.1513 1.11185 17.264 1.34095 17.264 1.58342V4.78342C17.2642 4.79466 17.2642 4.80587 17.264 4.81705V13.6168C17.264 14.841 16.2574 15.8334 15.0157 15.8334H13.4499C12.2303 15.8334 11.2417 14.8587 11.2417 13.6563C11.2417 12.454 12.2303 11.4793 13.4499 11.4793H15.658V5.80056L7.22679 7.76862V15.2001C7.22679 16.4243 6.22017 17.4168 4.97846 17.4168H3.81414C2.59459 17.4168 1.60596 16.442 1.60596 15.2397C1.60596 14.0373 2.59459 13.0626 3.81414 13.0626H5.62084V7.15863C5.6206 7.1474 5.6206 7.13621 5.62084 7.12504V3.95842C5.62084 3.59237 5.87539 3.27404 6.23642 3.18862L16.2736 0.813615C16.5128 0.757029 16.765 0.811611 16.9582 0.961731ZM7.22679 6.14152L15.658 4.17345V2.58757L7.22679 4.58257V6.14152ZM5.62084 14.6459H3.81414C3.48154 14.6459 3.21191 14.9118 3.21191 15.2397C3.21191 15.5676 3.48154 15.8334 3.81414 15.8334H4.97846C5.33322 15.8334 5.62084 15.5499 5.62084 15.2001V14.6459ZM15.658 13.0626H13.4499C13.1173 13.0626 12.8476 13.3284 12.8476 13.6563C12.8476 13.9843 13.1173 14.2501 13.4499 14.2501H15.0157C15.3704 14.2501 15.658 13.9665 15.658 13.6168V13.0626Z" />
</svg>
