<?xml version="1.0" standalone="no"?>
<!DOCTYPE svg PUBLIC "-//W3C//DTD SVG 20010904//EN"
 "http://www.w3.org/TR/2001/REC-SVG-20010904/DTD/svg10.dtd">
<svg version="1.0" xmlns="http://www.w3.org/2000/svg"
 width="618.000000pt" height="560.000000pt" viewBox="0 0 618.000000 560.000000"
 preserveAspectRatio="xMidYMid meet">

<g transform="translate(0.000000,560.000000) scale(0.100000,-0.100000)" stroke="none">
<path d="M4184 4822 c-153 -46 -111 -8 -1036 -931 l-858 -855 0 -423 0 -423
423 0 424 0 855 858 c777 779 857 863 886 922 44 91 62 170 62 273 0 108 -20
189 -68 281 -67 127 -183 230 -320 283 -91 35 -274 42 -368 15z m265 -283 c61
-13 139 -78 170 -142 49 -102 47 -223 -7 -301 -15 -23 -378 -393 -806 -823
l-779 -783 -219 0 -218 0 0 218 0 219 783 779 c430 429 804 794 831 812 44 29
57 32 122 32 40 0 96 -5 123 -11z"/>
<path d="M1620 4540 c-298 -7 -312 -9 -431 -71 -158 -84 -288 -243 -344 -419
-15 -46 -19 -116 -25 -410 -10 -442 -11 -1560 -1 -2020 7 -337 8 -347 34 -421
72 -209 223 -362 431 -438 l87 -31 1358 0 c1320 0 1359 1 1414 19 100 35 196
92 272 163 131 122 198 250 214 409 5 52 12 367 15 702 l6 607 -149 0 -150 0
-3 -677 c-3 -780 6 -710 -107 -824 -69 -68 -129 -102 -209 -119 -30 -7 -500
-9 -1337 -8 l-1290 3 -60 30 c-78 38 -172 132 -210 210 l-30 60 0 1320 0 1320
32 68 c43 89 119 169 202 210 l66 32 662 3 663 3 0 144 0 145 -417 -2 c-230
-1 -542 -5 -693 -8z"/>
</g>
</svg>
