<svg width="20" height="19" viewBox="0 0 20 19" xmlns="http://www.w3.org/2000/svg">
<path  d="M15.0551 2.37508C14.3899 2.37508 13.8506 2.90674 13.8506 3.56258C13.8506 4.21842 14.3899 4.75008 15.0551 4.75008C15.7203 4.75008 16.2595 4.21842 16.2595 3.56258C16.2595 2.90674 15.7203 2.37508 15.0551 2.37508ZM12.2447 3.56258C12.2447 2.03229 13.5029 0.791748 15.0551 0.791748C16.6072 0.791748 17.8655 2.03229 17.8655 3.56258C17.8655 5.09287 16.6072 6.33341 15.0551 6.33341C13.5029 6.33341 12.2447 5.09287 12.2447 3.56258ZM7.43388 3.16678C7.75545 3.16957 8.04432 3.36126 8.16801 3.65393L11.3581 11.2022L12.2859 8.45807C12.385 8.16476 12.6483 7.95521 12.96 7.92148C13.2717 7.88774 13.5748 8.036 13.7362 8.30111L18.554 16.2178C18.7029 16.4623 18.7068 16.7669 18.5642 17.0151C18.4217 17.2633 18.1548 17.4167 17.8655 17.4167H1.80597C1.53498 17.4167 1.28228 17.282 1.13395 17.0584C0.985631 16.8348 0.961701 16.5525 1.07032 16.3078L6.69115 3.6411C6.82005 3.35062 7.1123 3.16399 7.43388 3.16678ZM3.03373 15.8334H16.4473L13.2573 10.5917L12.2035 13.7088C12.0976 14.022 11.8056 14.2375 11.471 14.2496C11.1364 14.2616 10.8293 14.0677 10.7005 13.7629L7.40879 5.97413L3.03373 15.8334Z" />
</svg>
